<svg width="512" height="512" viewBox="0 0 512 512" fill="none" xmlns="http://www.w3.org/2000/svg">
<path d="M200.055 187.366C199.391 187.236 204.938 184.922 205.417 184.699C219.783 178.018 237.28 174.566 253.1 174.03C274.791 173.296 288.793 186.052 303 200" stroke="#A8C0FF" stroke-width="22" stroke-linecap="round"/>
<path d="M203 177.807C203 163.692 198.371 143.335 183.032 138.71C171.626 135.271 160.256 145.047 152.901 152.458C132.814 172.7 120.795 199.335 110.031 225.352C99.3595 251.145 91.4848 277.178 88.56 304.977C86.4906 324.646 84.7736 348.898 95.216 366.7C104.879 383.173 123.82 393.693 141.021 382.095C150.646 375.605 157.338 365.986 164.352 356.962" stroke="#A8C0FF" stroke-width="22" stroke-linecap="round"/>
<path d="M288.897 194.339C282.202 190.154 288.964 175.867 290.762 171.232C296.374 156.758 314.161 138.939 337 145C383.551 157.354 377.136 184.783 392.5 241C402.05 275.945 437.087 326.205 417.454 361.977C410.941 373.844 389.604 380.15 377.136 377.334C366.259 374.877 358.435 362.869 352.171 354.514" stroke="#A8C0FF" stroke-width="22" stroke-linecap="round"/>
<path d="M170 365.872C171.148 376.451 213.973 372.103 218.669 372.174C251.63 372.668 283.51 369.892 313 354" stroke="#A8C0FF" stroke-width="22" stroke-linecap="round"/>
<path d="M198.738 285.313C195.971 284.974 187.658 281.511 187.896 287.936C188.211 296.44 205.506 293.13 203.894 284.73C201.729 273.45 183.58 285.046 190.937 291.579C197.877 297.74 208.236 284.724 198.209 281.961C191.481 280.107 181.59 292.225 189.747 295.222C200.611 299.213 195.841 279.132 189.218 283.855C179.629 290.694 194.061 309.652 198.87 293.91C202.823 280.972 186.839 279.032 186.839 293.182" stroke="#A8C0FF" stroke-width="22" stroke-linecap="round"/>
<path d="M303.004 283.546C299.398 276.876 296.997 286.403 298.402 290.279C303.425 304.129 316.122 287.426 302.86 284.743C289.279 281.995 293.524 301.982 300.919 295.142C310.494 286.286 296.031 273.016 294.232 287.287C293.372 294.112 302.016 301.25 307.893 296.414C312.639 292.509 308.556 278.292 303.651 281.825C299.088 285.112 299.405 293.223 306.167 290.878C312.827 288.568 305.916 288.124 301.71 291.626" stroke="#A8C0FF" stroke-width="22" stroke-linecap="round"/>
</svg>
