<svg width="512" height="512" viewBox="0 0 512 512" fill="none" xmlns="http://www.w3.org/2000/svg">
<path d="M302.623 179.056C301.182 178.607 306.483 176.844 306.598 176.78C311.879 173.86 316.361 169.572 320.661 165.414C329.593 156.779 343.315 134.333 354.592 150.647C377.297 183.494 399.679 220.343 413.788 257.861C423.942 284.865 438.96 332.662 404.393 348.233C375.203 361.382 347.66 331.058 341.757 304.36" stroke="#A8C0FF" stroke-width="22" stroke-linecap="round"/>
<path d="M174.963 176.654C175.88 167.931 157.111 129.266 145.097 134.569C138.855 137.324 128.272 167.859 125.139 174.11C115.335 193.671 104.886 213.15 97.3875 233.754C86.8 262.847 64.2332 308.341 76.4848 339.278C95.6743 387.734 165.203 349.059 173.686 312.621" stroke="#A8C0FF" stroke-width="22" stroke-linecap="round"/>
<path d="M178.334 325.798C192.588 339.716 221.407 338.596 239.549 338.433C272.36 338.136 303.624 337.683 331.747 320.32" stroke="#A8C0FF" stroke-width="22" stroke-linecap="round"/>
<path d="M187.678 179.489C222.203 153.38 263.829 164.334 301.75 175.211" stroke="#A8C0FF" stroke-width="22" stroke-linecap="round"/>
<path d="M202.79 272.805C203.169 269.198 200.415 257.237 197.365 265.711C190.435 284.961 220.777 269.308 203.481 263.193C178.576 254.388 194.392 300.689 206.348 271.344C208.062 267.136 204.071 262.643 199.45 264.095C189.285 267.287 189.236 284.723 202.806 279.739C221.646 272.819 198.198 255.615 194.868 269.22C189.637 290.597 227.219 269.235 203.386 263.081C196.011 261.177 187.462 272.085 190.705 278.467C193.559 284.085 208.237 283.138 209.679 277.097C213.824 259.743 176.747 267.959 195.772 284.912" stroke="#A8C0FF" stroke-width="22" stroke-linecap="round"/>
<path d="M298.767 253.531C282.712 267.675 313.597 274.164 304.964 255.327C296.497 236.852 272.433 280.965 292.848 272.375C298.323 270.072 303.096 260.089 299.585 254.866C296.997 251.017 290.897 260.31 294.694 263.929C315.223 283.491 307.059 230.048 295.192 259.193C285.928 281.944 324.402 264.669 302.982 248.873C294.081 242.309 288.753 262.557 293.775 268.621C299.4 275.412 312.353 271.984 313.597 263.313C315.052 253.178 302.936 247.917 296.863 256.454C291.718 263.686 292.744 277.882 304.922 273.957C312.882 271.391 306.652 256.46 298.263 260.348C291.344 263.555 294.07 269.355 298.714 272.263" stroke="#A8C0FF" stroke-width="22" stroke-linecap="round"/>
</svg>
