<svg width="512" height="512" viewBox="0 0 512 512" fill="none" xmlns="http://www.w3.org/2000/svg">
<path d="M131.027 250.885C124.546 265.236 122.389 288.178 123.144 303.986C124.432 330.935 142.223 354.892 166.847 365.507C203.982 381.516 250.55 373.576 288.685 368.335C322.713 363.658 359.917 358.602 386.937 335.469C398.87 325.253 408 315.433 408 298.958C408 289.289 407.201 279.499 404.847 270.114C401.122 255.27 390.937 229.386 373.946 226" stroke="#A2FFD8" stroke-width="22" stroke-linecap="round"/>
<path d="M198.366 285.976C190.125 286.873 196.215 299.477 205.49 296.447C216.14 292.969 209.708 273.88 198.111 282.735C183.134 294.17 201.079 310.215 206.19 297.07C212.576 280.644 190.961 275.074 192.259 290.339C193.424 304.037 212.355 298.574 207.907 284.854C201.846 266.158 179.973 290.985 191.114 297.008C209.251 306.813 206.202 277.461 201.546 279.12C188.964 283.603 201.886 305.842 210.197 291.835C214.611 284.397 199.432 281.838 198.429 293.144C197.4 304.738 212.995 285.923 203.836 287.846C199.276 288.803 199.017 296.051 204.599 294.64C208.545 293.642 209.278 289.547 205.808 287.659C198.156 283.493 208.277 303.23 206.253 290.837C204.375 279.337 191.812 284.651 195.694 294.453C199.682 304.523 214.87 291.621 205.045 283.919C193.304 274.716 191.466 303.666 200.401 298.691C212.159 292.145 197.039 277.623 192.64 292.707" stroke="#A2FFD8" stroke-width="22" stroke-linecap="round"/>
<path d="M324.768 278.751C324.768 273.481 320.344 273.501 319.372 279.004C316.42 295.707 346.67 282.098 336.941 273.322C327.852 265.123 317.981 283.894 327.152 286.201C342.216 289.99 338.922 267.069 330.415 272.943C315.353 283.344 343.623 292.801 340.078 276.226C338.41 268.427 322.885 262.451 319.372 271.68C317.254 277.244 324.671 283.498 329.286 284.181C342.697 286.165 339.345 266.074 331.168 271.049C318.947 278.484 342.938 295.281 341.521 276.036C340.589 263.371 320.626 273.472 326.148 285.38C331.453 296.817 346.625 278.031 337.129 272.059C329.696 267.385 330.719 289.317 340.517 282.539C347.9 277.433 331.623 268.449 335.56 281.466C338.698 291.838 351.475 269.931 337.819 270.481C326.891 270.921 332.283 290.509 337.066 282.602C343.26 272.364 323.251 267.755 325.584 280.898C328.122 295.202 347.351 260.573 329.286 274.206" stroke="#A2FFD8" stroke-width="22" stroke-linecap="round"/>
<path d="M88.2665 190C77.853 192.294 89.5371 230.171 91.4427 235.837C96.6035 251.183 108.433 272.098 126 275" stroke="#A2FFD8" stroke-width="22" stroke-linecap="round"/>
<path d="M88 190.007C93.5676 190.007 97.3725 189.773 103.053 191.924C118.886 197.916 133.095 200.279 150 198.333" stroke="#A2FFD8" stroke-width="22" stroke-linecap="round"/>
<path d="M137 196C137 175.387 170.215 160.084 186.489 155.767C228.155 144.715 268.666 143.74 307 164.217" stroke="#A2FFD8" stroke-width="22" stroke-linecap="round"/>
<path d="M306 162.713C306.897 154.644 347.514 177.507 354 181" stroke="#A2FFD8" stroke-width="22" stroke-linecap="round"/>
<path d="M341 196.997C352.139 191.427 360.485 181.063 367.194 170.803C371.92 163.573 373.427 145.945 385.58 154.116C413.99 173.221 405.271 204.793 396.535 231" stroke="#A2FFD8" stroke-width="22" stroke-linecap="round"/>
</svg>
