<svg width="512" height="512" viewBox="0 0 512 512" fill="none" xmlns="http://www.w3.org/2000/svg">
<path d="M80.3142 224.538C79.6155 216.889 78.0851 206.56 79.747 221.998C82.6405 248.876 85.0307 275.97 85.4188 303.005C85.52 310.058 91.0742 277.474 93.3594 272.239C102.402 251.526 129.439 223.463 153.765 241.474C169.137 252.855 172.028 275.105 170.213 292.562C169.678 297.716 182.711 259.661 188.647 251.635C223.3 204.781 272.107 243.22 261.531 290.586" stroke="#FFAEAE" stroke-width="22" stroke-linecap="round"/>
<path d="M378.583 213.766C378.583 166.965 370.382 245.482 370.104 255.515C369.593 273.916 370.055 307.476 393.845 311.18C407.898 313.368 422.937 311.601 432 300.672" stroke="#FFAEAE" stroke-width="22" stroke-linecap="round"/>
<path d="M340.136 262C336.976 257.37 389.771 257 399 257" stroke="#FFAEAE" stroke-width="22" stroke-linecap="round"/>
</svg>
