<svg width="512" height="512" viewBox="0 0 512 512" fill="none" xmlns="http://www.w3.org/2000/svg">
<path d="M109.5 361C124.5 355.5 92.5 367.233 109.5 361ZM109.5 361C123.542 357.723 146.161 354.433 160.486 352.92C191.088 349.686 221.821 347.941 252.542 346.192C276.219 344.844 299.896 343.357 323.62 344.293C340.802 344.971 357.934 346.445 375.122 347.057C395.965 347.8 416.342 348.811 437 345.885" stroke="#8E66FF" stroke-width="20" stroke-linecap="round"/>
<path d="M136 196.5C184.136 193.324 231.891 197.711 280.095 196.5" stroke="#8E66FF" stroke-width="20" stroke-linecap="round"/>
<path d="M130.632 286.469C139.687 286.469 148.783 285.261 157.778 284.442C183.18 282.129 208.633 280.443 234.033 278.127C263.849 275.408 293.516 271.113 323.2 267.264C342.997 264.697 362.57 261.824 382.159 258.05" stroke="#8E66FF" stroke-width="20" stroke-linecap="round"/>
</svg>
