<svg width="512" height="512" viewBox="0 0 512 512" fill="none" xmlns="http://www.w3.org/2000/svg">
<path d="M138.193 159C118.468 160.98 97.5371 190.9 100.322 209.907C101.398 217.253 109.629 212.926 107.075 215.489C97.821 224.778 90.6103 239.103 85.3586 250.911C71.2884 282.547 79.7096 314.829 119.258 315.974C158.157 317.1 202.41 281.451 224 251.111" stroke="#FFFCB0" stroke-width="22" stroke-linecap="round"/>
<path d="M147 163C169.176 163 191.221 174.704 206.409 190.336C223.223 207.641 230.551 228.944 244 248" stroke="#FFFCB0" stroke-width="22" stroke-linecap="round"/>
<path d="M241.48 240.818C232.784 241.682 231.613 252.132 240.418 255.57C247.551 258.355 259.814 244.768 249.725 241.091C238.818 237.116 232.193 255.543 242.916 260.009C259.08 266.741 266.429 235.661 249.35 232.008C237.928 229.565 226.632 250.181 237.232 258.438C249.543 268.028 264.758 243.475 252.474 232.486C238.516 220.001 231.786 236.102 234.359 249.97C237.964 269.405 261.75 253.273 252.224 239.452C243.321 226.536 233.003 247.354 237.794 257.004C243.22 267.931 260.171 253.737 252.848 246.692C242.955 237.172 239.611 258.673 251.099 253.999C253.178 253.153 262.297 248.205 260.844 244.574C260.124 242.774 255.8 240.938 254.535 242.935C249.95 250.176 260.094 251.565 260.094 247.921C260.094 238.926 243.687 238.153 244.603 249.833C245.592 262.446 265.19 240.955 251.224 239.179C239.178 237.648 227.367 255.309 243.728 256.799" stroke="#FFFCB0" stroke-width="22" stroke-linecap="round"/>
<path d="M266.651 244.121C266.401 246.109 263.491 244.866 263.233 243.455C262.086 237.185 284.775 225.808 287.562 224.34C319.03 207.76 364.527 196.928 399.623 209.421C418.458 216.126 433 234.124 433 254.311C433 269.439 423.879 276.465 416.311 287.746C414.428 290.553 420.254 297.046 420.802 301.267C422.372 313.36 410.227 332.981 402.438 341.495C385.197 360.342 354.673 352.563 334.343 342.694C299.747 325.899 273.814 289.528 257 256.11" stroke="#FFFCB0" stroke-width="22" stroke-linecap="round"/>
<path d="M268 252C268 246.699 277.348 247.221 280.766 246.902C296.136 245.468 311.587 244.578 327 245.203" stroke="#FFFCB0" stroke-width="3" stroke-linecap="round"/>
<path d="M229 241C225.823 240.277 223.341 238.502 220.648 236.644C215.351 232.989 210.12 229.173 205.029 225.222C199.508 220.938 194.306 216.015 188 213" stroke="#FFFCB0" stroke-width="3" stroke-linecap="round"/>
<path d="M269 253C274.729 253 279.69 258.333 283.667 261.973C289.82 267.604 295.874 273.34 302 279" stroke="#FFFCB0" stroke-width="3" stroke-linecap="round"/>
<path d="M226 246.135C220.298 242.687 211.005 242.506 204.655 243.584C192.154 245.706 181.377 251.26 171 258" stroke="#FFFCB0" stroke-width="3" stroke-linecap="round"/>
</svg>
