<svg width="512" height="512" viewBox="0 0 512 512" fill="none" xmlns="http://www.w3.org/2000/svg">
<path d="M112.116 178.31C112.116 170.503 106.432 174.889 103.316 179.059C94.3428 191.065 87.4242 206.903 86.2514 221.977C85.957 225.761 85.3141 234.178 90.8662 234.178C92.4358 234.178 83.5874 248.903 82.6025 251.516C71.7795 280.231 64.9113 325.295 101.813 336.603C132.227 345.923 168.47 325.992 194.217 312.308C217.15 300.119 240.739 287.568 257 266.928" stroke="#FFFCB0" stroke-width="22" stroke-linecap="round"/>
<path d="M114 177C123.537 179.053 133.714 178.372 143.402 179.137C162.788 180.667 180.514 185.196 197.377 195.216C220.181 208.765 237.601 232.418 255 252" stroke="#FFFCB0" stroke-width="22" stroke-linecap="round"/>
<path d="M265.757 256.496C269.566 247.313 258.901 244.724 257.862 255.689C256.112 274.169 280.394 262.749 282.077 250.687C284.648 232.264 254.127 245.367 261.2 262.521C267.385 277.52 301.23 254.034 283.137 241.918C266.717 230.923 258.887 271.019 279.852 265.534C294.143 261.794 277.492 243.442 268.883 256.55C262.143 266.815 281.263 270.235 283.455 260.154C287.004 243.837 257.832 261.894 273.811 268.654C287.961 274.639 287.666 252.168 274.394 257.68C260.411 263.487 274.186 282.673 283.243 266.932C291.29 252.948 270.555 238.845 268.831 255.474C266.909 274.008 296.218 255.909 283.932 250.472C268.342 243.572 268.233 273.441 283.137 265.318C303.596 254.168 263.265 240.084 271.745 264.296C275.624 275.371 298.979 252.285 275.189 249.934C265.777 249.003 244.216 265.361 259.081 271.021" stroke="#FFFCB0" stroke-width="22" stroke-linecap="round"/>
<path d="M292 257.294C304.851 235.946 338.049 224.021 360.517 218.741C382.82 213.5 418.237 210.535 433.313 232.642C439.93 242.345 433.193 254.133 425.344 260.715C421.748 263.73 410.194 266.551 408.495 270" stroke="#FFFCB0" stroke-width="22" stroke-linecap="round"/>
<path d="M426.39 265C448.906 285.393 432.839 331.609 403.879 336.513C387.947 339.21 367.603 338.9 353.627 329.963C329.979 314.839 307.946 290.937 291 268.865" stroke="#FFFCB0" stroke-width="22" stroke-linecap="round"/>
<path d="M106.366 184C104.86 185.203 102.911 185.218 101.442 186.594C99.0204 188.861 98.0271 194.162 97.2762 196.86C94.569 206.586 91 217.336 91 227.551C91 243.647 105.837 252.643 120 255" stroke="#FFFCB0" stroke-width="22" stroke-linecap="round"/>
<path d="M254.43 259C255.337 258.391 257.621 257.401 257.971 256.302C258.639 254.201 247.539 252.665 246.327 252.389C234.02 249.58 222.158 245.335 210 242" stroke="#FFFCB0" stroke-width="3" stroke-linecap="round"/>
<path d="M300.215 258.832C315.469 255.621 330.378 250.926 345.571 247.42" stroke="#FFFCB0" stroke-width="3" stroke-linecap="round"/>
<path d="M245.236 263.347C244.959 260.852 227.463 265.049 225.413 265.69C217.025 268.311 209.503 273.006 201.5 276.562" stroke="#FFFCB0" stroke-width="3" stroke-linecap="round"/>
<path d="M297.404 262.763C298.626 261.763 300.483 261.985 301.945 262.064C307.38 262.359 312.735 263.416 317.886 265.165C326.423 268.064 332.489 272.123 339.46 277.699" stroke="#FFFCB0" stroke-width="3" stroke-linecap="round"/>
</svg>
