<svg width="512" height="512" viewBox="0 0 512 512" fill="none" xmlns="http://www.w3.org/2000/svg">
<path d="M71.5 238C61.8888 214.075 69.1238 232.085 71.5 238ZM71.5 238C81.1113 261.925 88.4266 294.007 86.272 319.32C84.813 336.46 85.3921 315.414 85.5914 313.629C87.6769 294.941 89.9872 283.209 101 267.823C123.569 236.292 153.526 247.576 166.715 276.09C173.195 290.099 173.988 336.818 175.698 321.489C178.438 296.942 181.179 267.044 199 249.121C218.628 229.381 247.667 246.828 253.011 267.823C256.913 283.153 247.258 305 253.011 319.32" stroke="#FFAEAE" stroke-width="22" stroke-linecap="round"/>
<path d="M388.912 216.931C388.912 184.891 387.66 249.082 388.09 252.75C392.509 290.482 415.968 358.517 453 303.061" stroke="#FFAEAE" stroke-width="22" stroke-linecap="round"/>
<path d="M340 273C366.94 253.409 413.794 255.79 446 251" stroke="#FFAEAE" stroke-width="22" stroke-linecap="round"/>
</svg>
